<?xml version="1.0" encoding="UTF-8"?>
<svg width="100px" height="100px" viewBox="0 0 100 100" version="1.1" xmlns="http://www.w3.org/2000/svg" xmlns:xlink="http://www.w3.org/1999/xlink">
    <title>Close</title>
    <g id="Close" stroke="none" stroke-width="1" fill="none" fill-rule="evenodd">
        <g id="window-close-svgrepo-com" transform="translate(2.000000, 2.000000)" fill="#2D2C2C" fill-rule="nonzero">
            <path d="M88.2995309,0.0466695096 L7.50908316,0.0466695096 C3.36880171,0.0466695096 0,3.41240085 0,7.55309168 L0,88.2563412 C0,92.3941663 3.36880171,95.7625586 7.50908316,95.7625586 L88.2995309,95.7625586 C92.4408358,95.7625586 95.8092281,92.3941663 95.8092281,88.2563412 L95.8092281,7.55309168 C95.808,3.41240085 92.4396077,0.0466695096 88.2995309,0.0466695096 Z M83.2107122,8.59128358 C84.9870192,8.59128358 86.4266098,10.032307 86.4266098,11.8102516 C86.4266098,13.5863539 84.9870192,15.0271727 83.2107122,15.0271727 C81.4323582,15.0271727 79.9923582,13.5863539 79.9923582,11.8102516 C79.9923582,10.032307 81.4321535,8.59128358 83.2107122,8.59128358 Z M71.6804776,8.59128358 C73.4588316,8.59128358 74.8988316,10.032307 74.8988316,11.8102516 C74.8988316,13.5863539 73.4590362,15.0271727 71.6804776,15.0271727 C69.9029424,15.0271727 68.46458,13.5863539 68.46458,11.8102516 C68.4647846,10.032307 69.90458,8.59128358 71.6804776,8.59128358 Z M87.227565,87.1833518 L8.58043497,87.1833518 L8.58043497,23.0137996 L87.227565,23.0137996 L87.227565,87.1833518 Z M28.667565,67.1197612 L41.1704904,54.6156077 L28.667565,42.1114542 C26.8079488,40.2520426 26.8079488,37.2363326 28.667565,35.3779446 C30.5271812,33.5195565 33.5398209,33.5195565 35.4000512,35.3779446 L47.904,47.8825075 L60.409177,35.3791727 C62.2700213,33.5207846 65.282661,33.5207846 67.141049,35.3791727 C69.0018934,37.2375608 69.0018934,40.2532708 67.141049,42.1126823 L54.6383284,54.6156077 L67.141049,67.1197612 C68.9994371,68.9793774 68.9994371,71.9954968 67.141049,73.8538849 C66.2119574,74.7829765 64.9924094,75.2476247 63.7753177,75.2476247 C62.5557697,75.2476247 61.3374499,74.7829765 60.4081535,73.8538849 L47.9042047,61.3485032 L35.398209,73.8514286 C34.4689126,74.7805203 33.252435,75.2476247 32.0322729,75.2476247 C30.8157953,75.2476247 29.5956333,74.7805203 28.6665416,73.8514286 C26.8079488,71.9932452 26.8079488,68.9793774 28.667565,67.1197612 Z" id="Shape"></path>
        </g>
    </g>
</svg>