<?xml version="1.0" encoding="UTF-8"?>
<svg width="100px" height="100px" viewBox="0 0 100 100" version="1.1" xmlns="http://www.w3.org/2000/svg" xmlns:xlink="http://www.w3.org/1999/xlink">
    <title>Full Screen</title>
    <g id="Full-Screen" stroke="none" stroke-width="1" fill="none" fill-rule="evenodd">
        <path d="M1.65789474,72.1112281 C1.65789474,69.7112281 4.53789474,68.5378947 6.19122807,70.1912281 L6.19122807,70.1912281 L13.9245614,77.9245614 L22.2428947,69.5278947 L22.2434947,72.2434947 C22.2434947,74.9322494 24.3658014,77.1253129 27.0266051,77.2388752 L27.2434947,77.2434947 L29.6138947,77.2428947 L21.3912281,85.3912281 L29.1245614,93.1245614 C30.7778947,94.7778947 29.6045614,97.6578947 27.2045614,97.6578947 L27.2045614,97.6578947 L4.3245614,97.6578947 C2.83122807,97.6578947 1.65789474,96.4845614 1.65789474,94.9912281 L1.65789474,94.9912281 Z M93.1245614,70.1912281 C94.7778947,68.5378947 97.6578947,69.7112281 97.6578947,72.1112281 L97.6578947,72.1112281 L97.6578947,94.9912281 C97.6578947,96.4845614 96.4845614,97.6578947 94.9912281,97.6578947 L94.9912281,97.6578947 L72.1112281,97.6578947 C69.7112281,97.6578947 68.5378947,94.7778947 70.1912281,93.1245614 L70.1912281,93.1245614 L77.9245614,85.3912281 L69.6998947,77.2428947 L73.2434947,77.2434947 C75.9322494,77.2434947 78.1253129,75.121188 78.2388752,72.4603844 L78.2434947,72.2434947 L78.2428947,70.7098947 L85.3912281,77.9245614 Z M94.9912281,1.65789474 C96.4845614,1.65789474 97.6578947,2.83122807 97.6578947,4.3245614 L97.6578947,4.3245614 L97.6578947,27.2045614 C97.6578947,29.6045614 94.7778947,30.7778947 93.1245614,29.1245614 L93.1245614,29.1245614 L85.3912281,21.3912281 L78.2428947,28.6048947 L78.2434947,26.2434947 C78.2434947,23.55474 76.121188,21.3616766 73.4603844,21.2481143 L73.2434947,21.2434947 L70.5368947,21.2428947 L77.9245614,13.9245614 L70.1912281,6.19122807 C68.5378947,4.53789474 69.7112281,1.65789474 72.1112281,1.65789474 L72.1112281,1.65789474 Z M27.2045614,1.65789474 C29.6045614,1.65789474 30.7778947,4.53789474 29.1245614,6.19122807 L29.1245614,6.19122807 L21.3912281,13.9245614 L28.7768947,21.2428947 L27.2434947,21.2434947 C24.55474,21.2434947 22.3616766,23.3658014 22.2481143,26.0266051 L22.2434947,26.2434947 L22.2428947,29.7868947 L13.9245614,21.3912281 L6.19122807,29.1245614 C4.53789474,30.7778947 1.65789474,29.6045614 1.65789474,27.2045614 L1.65789474,27.2045614 L1.65789474,4.3245614 C1.65789474,2.83122807 2.83122807,1.65789474 4.3245614,1.65789474 L4.3245614,1.65789474 Z" id="Combined-Shape" fill="#2D2C2C" fill-rule="nonzero"></path>
        <rect id="Rectangle" fill="#2D2C2C" x="29" y="29" width="42" height="42" rx="5"></rect>
    </g>
</svg>